# xmcd
#
# Track frame offsets:
#	150
#	21227
#	40107
#	60713
#	80235
#	101701
#	126267
#	144906
#	170599
#	190627
#	224721
#	244442
#	260794
#	276283
#	297510
#	317048
#
# Disc length: 4468 seconds
#
# Revision: 0
# Processed by: cddbd v1.4PL0 Copyright (c) Steve Scherf et al.
# Submitted via: audiograbber 1.80
#
DISCID=05117210
DTITLE=Celine Dion - Best Ballads
DYEAR=1900
DGENRE=
TTITLE0=Think Twice
TTITLE1=Pour Que Tu M'Aimes Encore
TTITLE2=Because You Loved Me
TTITLE3=Falling Into You
TTITLE4=Only One Road
TTITLE5=I Love You
TTITLE6=Love Doesn't Ask Why
TTITLE7=The Power Of Love
TTITLE8=Je Sais Pas
TTITLE9=It's All Coming Back To Me Now
TTITLE10=No Living Wothout Loving You
TTITLE11=You Make Me Fill Like A Natural Woman
TTITLE12=The Colour Of My Love
TTITLE13=Call The Man
TTITLE14=When I Fall In Love
TTITLE15=Beauty And The Beast
EXTD=
EXTT0=
EXTT1=
EXTT2=
EXTT3=
EXTT4=
EXTT5=
EXTT6=
EXTT7=
EXTT8=
EXTT9=
EXTT10=
EXTT11=
EXTT12=
EXTT13=
EXTT14=
EXTT15=
PLAYORDER=
